<?xml version="1.0" encoding="UTF-8" standalone="no"?><!DOCTYPE svg PUBLIC "-//W3C//DTD SVG 1.1//EN" "http://www.w3.org/Graphics/SVG/1.1/DTD/svg11.dtd"><svg width="100%" height="100%" viewBox="0 0 3334 3334" version="1.1" xmlns="http://www.w3.org/2000/svg" xmlns:xlink="http://www.w3.org/1999/xlink" xml:space="preserve" xmlns:serif="http://www.serif.com/" style="fill-rule:evenodd;clip-rule:evenodd;stroke-linejoin:round;stroke-miterlimit:2;"><path d="M2765.28,2154.17l-629.167,-0c-76.192,-0 -138.889,62.696 -138.889,138.889c0,76.192 62.697,138.888 138.889,138.888l333.333,0c-209.513,218.949 -499.739,342.926 -802.781,342.926c-608.439,-0 -1109.52,-499.767 -1111.11,-1108.2c-0,-76.193 -62.697,-138.889 -138.889,-138.889c-76.193,-0 -138.889,62.696 -138.889,138.889c2.059,760.498 628.383,1385.13 1388.88,1385.13c355.421,-0 697.628,-136.431 955.56,-380.963l0,245.834c0,76.192 62.697,138.889 138.889,138.889c76.192,-0 138.889,-62.697 138.889,-138.889l-0,-625c-0.708,-74.12 -60.632,-135.28 -134.722,-137.5Zm-1098.61,-1876.39c-355.939,1.015 -698.213,138.82 -955.556,384.722l0,-245.833c0,-76.193 -62.697,-138.889 -138.889,-138.889c-76.192,-0 -138.889,62.696 -138.889,138.889l0,625c0,76.192 62.697,138.889 138.889,138.889l625,-0c76.192,-0 138.889,-62.697 138.889,-138.889c0,-76.193 -62.697,-138.889 -138.889,-138.889l-333.333,-0c209.513,-218.952 499.742,-342.93 802.786,-342.93c607.915,-0 1108.75,498.908 1111.1,1106.82c-0,76.192 62.696,138.889 138.889,138.889c76.192,-0 138.889,-62.697 138.889,-138.889c-0,-761.922 -626.967,-1388.89 -1388.89,-1388.89Z" style="fill:#7fb100;fill-rule:nonzero;"/></svg>